<?xml version="1.0" standalone="no"?>
<!DOCTYPE svg PUBLIC "-//W3C//DTD SVG 20010904//EN"
 "http://www.w3.org/TR/2001/REC-SVG-20010904/DTD/svg10.dtd">
<svg version="1.0" xmlns="http://www.w3.org/2000/svg"
 width="200.000000pt" height="200.000000pt" viewBox="0 0 200.000000 200.000000"
 preserveAspectRatio="xMidYMid meet">
<metadata>
Created by potrace 1.14, written by Peter Selinger 2001-2017
</metadata>
<g transform="translate(0.000000,200.000000) scale(0.100000,-0.100000)"
fill="#000000" stroke="none">
<path d="M0 1000 l0 -1000 1000 0 1000 0 0 1000 0 1000 -1000 0 -1000 0 0
-1000z m781 597 c36 -25 259 -243 259 -254 0 -4 -10 -17 -22 -30 l-22 -24
-122 122 c-132 132 -159 145 -196 99 -33 -40 -23 -58 100 -183 94 -95 125
-119 146 -119 22 0 56 28 169 140 115 114 149 142 179 147 75 14 158 -55 158
-132 0 -55 -23 -83 -249 -308 l-191 -190 0 50 0 50 180 176 c191 187 203 207
163 251 -35 39 -60 25 -197 -111 -72 -71 -142 -134 -155 -141 -13 -6 -43 -12
-68 -13 -44 0 -46 1 -179 134 -75 74 -142 146 -150 161 -33 62 -9 132 58 172
53 32 95 33 139 3z m501 -904 l3 -86 64 51 c56 45 70 52 109 52 l45 0 -64 -51
c-35 -28 -68 -55 -74 -61 -7 -6 15 -32 65 -78 l75 -69 -43 -1 c-39 0 -51 6
-105 55 -34 30 -65 55 -69 55 -5 0 -8 -25 -8 -55 0 -54 0 -55 -30 -55 l-30 0
0 165 0 165 30 0 29 0 3 -87z m-958 17 c28 -33 52 -60 55 -59 3 0 28 27 54 60
44 55 51 59 89 59 38 0 40 -1 26 -17 -8 -10 -42 -52 -76 -94 l-62 -76 0 -66 0
-67 -35 0 -35 0 0 69 0 69 -75 91 -76 91 43 0 c40 0 46 -4 92 -60z m457 -23
c23 -15 38 -37 48 -65 12 -38 11 -48 -4 -89 -14 -36 -25 -49 -59 -64 -81 -37
-179 -17 -216 43 -38 62 -18 151 42 184 13 8 53 13 89 14 53 0 73 -5 100 -23z
m353 -6 c39 -37 51 -94 31 -147 -9 -23 -28 -50 -42 -59 -37 -25 -130 -31 -175
-12 -94 39 -105 176 -19 231 20 13 44 16 103 14 65 -3 80 -7 102 -27z m621 -3
c24 -22 38 -45 42 -70 l6 -38 -122 0 c-66 0 -121 -3 -121 -7 0 -4 10 -17 22
-30 29 -31 108 -33 138 -3 22 22 70 27 70 7 0 -43 -70 -87 -137 -86 -119 1
-185 94 -138 193 23 48 59 65 138 66 62 0 70 -2 102 -32z"/>
<path d="M607 632 c-23 -25 -21 -78 3 -102 25 -25 105 -27 138 -4 27 18 31 84
6 108 -23 24 -126 22 -147 -2z"/>
<path d="M946 628 c-41 -59 -3 -118 75 -118 64 0 93 24 92 76 -1 50 -22 64
-94 64 -48 0 -60 -4 -73 -22z"/>
<path d="M1593 648 c-41 -20 -24 -28 60 -28 l82 1 -24 19 c-26 22 -82 26 -118
8z"/>
</g>
</svg>
