<svg width="1110" height="494" viewBox="0 0 1110 494" fill="none" xmlns="http://www.w3.org/2000/svg">
<g clip-path="url(#clip0_1445_5967)">
<mask id="mask0_1445_5967" style="mask-type:alpha" maskUnits="userSpaceOnUse" x="0" y="0" width="1110" height="494">
<rect width="1110" height="494" fill="#C4C4C4"/>
</mask>
<g mask="url(#mask0_1445_5967)">
<rect width="1110" height="530" fill="#001023"/>
<path opacity="0.15" d="M730.285 206.715C612.469 122.077 450.104 220.981 321.427 154C254.477 119.15 240.899 87.7021 192.856 35.7146C162.041 2.36945 159.104 -3.43556 129.856 -27.2854C100.609 -51.1353 47.5703 -78.714 47.5703 -78.714V-166.143H1432.28V416.286H1101.86C1101.86 416.286 925.371 419.035 840.856 346.857C789.453 302.958 790.595 250.041 730.285 206.715Z" fill="white"/>
<path opacity="0.15" d="M777.855 178.715C660.039 94.0768 497.674 214.838 368.998 147.857C302.047 113.007 266.998 -10.4998 247.498 -46.9998C236.813 -66.9998 220.498 -84.9998 193.998 -98.9998C167.498 -113 95.1406 -106.714 95.1406 -106.714V-194.143H1479.85V351.715H1170C1170 351.715 952.712 358.715 881.998 308.572C820.283 264.811 838.166 222.041 777.855 178.715Z" fill="white"/>
</g>
</g>
<defs>
<clipPath id="clip0_1445_5967">
<rect width="1110" height="494" fill="white"/>
</clipPath>
</defs>
</svg>
