<svg width="22" height="23" viewBox="0 0 22 23" fill="none" xmlns="http://www.w3.org/2000/svg">
<path d="M3.10136 5.99655C4.38919 5.3088 5.89581 5.15504 7.29602 5.56846C8.42536 5.9003 9.04411 6.58596 9.34752 7.3468C9.62252 8.03796 9.62252 8.7548 9.62252 9.17096V14.4785C9.62252 14.6608 9.55009 14.8357 9.42116 14.9646C9.29223 15.0935 9.11736 15.166 8.93502 15.166C8.75269 15.166 8.57782 15.0935 8.44889 14.9646C8.31996 14.8357 8.24752 14.6608 8.24752 14.4785V14.2035C8.12819 14.2742 8.00716 14.3421 7.88452 14.407C7.01186 14.8699 5.75144 15.3401 4.44061 15.1045C2.98861 14.8433 2.07928 13.6425 1.87394 12.3985C1.66403 11.1335 2.16361 9.7063 3.61744 9.00963C4.93744 8.37713 6.35827 8.43396 7.39594 8.61821C7.70944 8.67413 7.99452 8.74288 8.24202 8.81163C8.23011 8.48988 8.19161 8.1608 8.06969 7.85646C7.91752 7.47421 7.61961 7.09563 6.91102 6.88846C5.86218 6.57774 4.7334 6.68959 3.76594 7.20013C3.60656 7.28536 3.42003 7.3044 3.24672 7.25314C3.07341 7.20187 2.92725 7.08442 2.83989 6.9262C2.75252 6.76798 2.73098 6.58172 2.77991 6.40773C2.82885 6.23375 2.94433 6.08603 3.10136 5.99655ZM7.15577 9.97213C6.25194 9.81171 5.16203 9.7943 4.21144 10.2499C3.39469 10.6413 3.10411 11.414 3.23061 12.1749C3.35986 12.9577 3.90986 13.6122 4.68444 13.7515C5.54427 13.9065 6.46919 13.6012 7.24011 13.1924C7.59196 13.0046 7.9285 12.7894 8.24661 12.5489V10.2508C7.89027 10.1314 7.52569 10.0383 7.15577 9.97213ZM15.1097 6.9508C15.1954 6.9792 15.2747 7.0242 15.343 7.08325C15.4113 7.14229 15.4673 7.21422 15.5079 7.29491C15.5484 7.37561 15.5726 7.4635 15.5792 7.55356C15.5857 7.64362 15.5744 7.73409 15.546 7.8198C15.4635 8.0673 15.3764 8.37896 15.2976 8.68146C16.1666 8.6008 17.0118 8.4743 17.7158 8.3093C17.8043 8.28679 17.8964 8.28214 17.9868 8.29563C18.0771 8.30912 18.1638 8.34048 18.2419 8.38788C18.32 8.43527 18.3879 8.49775 18.4415 8.57166C18.4952 8.64557 18.5336 8.72944 18.5545 8.81836C18.5754 8.90728 18.5783 8.99947 18.5632 9.08954C18.5481 9.17962 18.5151 9.26578 18.4663 9.34298C18.4175 9.42019 18.3538 9.48689 18.2789 9.5392C18.204 9.59151 18.1195 9.62837 18.0302 9.64763C17.1383 9.85755 16.0575 10.007 14.9722 10.0885C14.8714 10.589 14.7944 11.0465 14.7366 11.4635C15.2345 11.3182 15.7506 11.2447 16.2693 11.2454C16.2726 11.063 16.3481 10.8895 16.4794 10.7629C16.6106 10.6363 16.7868 10.567 16.9691 10.5703C17.1515 10.5735 17.3251 10.6491 17.4517 10.7804C17.5783 10.9116 17.6476 11.0878 17.6443 11.2701L17.6415 11.4736C18.1658 11.6488 18.6441 11.9393 19.0413 12.3236C19.4385 12.708 19.7445 13.1765 19.9369 13.6947C20.1085 14.1574 20.1844 14.65 20.1602 15.1428C20.1359 15.6357 20.0119 16.1185 19.7957 16.562C19.341 17.5016 18.4757 18.2982 17.2043 18.7868C17.0348 18.8489 16.8478 18.8418 16.6834 18.7672C16.5191 18.6926 16.3908 18.5563 16.326 18.3879C16.2613 18.2194 16.2654 18.0323 16.3374 17.8668C16.4095 17.7013 16.5437 17.5708 16.7111 17.5035C17.7039 17.1221 18.2768 16.5446 18.5582 15.9635C18.6937 15.6865 18.7715 15.3849 18.7867 15.077C18.802 14.7691 18.7545 14.4613 18.6471 14.1723C18.436 13.6101 18.0164 13.1509 17.4756 12.8899C17.1802 14.3142 16.448 15.6109 15.381 16.5996C15.4333 16.7206 15.4855 16.849 15.5369 16.9883C15.5656 17.0739 15.5772 17.1644 15.5711 17.2546C15.5649 17.3447 15.541 17.4327 15.5007 17.5136C15.4605 17.5946 15.4048 17.6667 15.3366 17.7261C15.2685 17.7855 15.1894 17.8308 15.1037 17.8596C15.0181 17.8884 14.9276 17.9 14.8375 17.8938C14.7473 17.8876 14.6593 17.8637 14.5784 17.8235C14.4975 17.7833 14.4253 17.7275 14.3659 17.6594C14.3066 17.5913 14.2612 17.5121 14.2324 17.4265C13.8762 17.6247 13.4934 17.771 13.0958 17.861C12.4358 18.003 11.6685 17.9517 11.1433 17.4155C10.3504 16.6033 10.3934 15.3282 10.9563 14.2603C11.3935 13.428 12.169 12.6378 13.2828 12.0484C13.3378 11.4855 13.4267 10.8585 13.5578 10.1564C12.9583 10.1692 12.3844 10.1582 11.8674 10.1225C11.6891 10.1055 11.5243 10.0196 11.4083 9.88307C11.2924 9.7465 11.2343 9.57004 11.2465 9.39127C11.2586 9.2125 11.3401 9.04556 11.4736 8.92599C11.6071 8.80642 11.7819 8.74368 11.9609 8.75113C12.5311 8.78963 13.181 8.79696 13.8557 8.77313C13.962 8.34046 14.105 7.79505 14.2407 7.38713C14.2691 7.30141 14.3141 7.22213 14.3731 7.15381C14.4322 7.08549 14.5041 7.02947 14.5848 6.98896C14.6655 6.94844 14.7534 6.92421 14.8435 6.91767C14.9335 6.91112 15.024 6.92238 15.1097 6.9508ZM13.2232 13.7085C12.7227 14.087 12.3799 14.506 12.1727 14.9001C11.7657 15.6729 11.9078 16.2293 12.1269 16.4539C12.1773 16.5061 12.3634 16.6115 12.807 16.5162C13.1233 16.4484 13.423 16.331 13.7026 16.1743C13.5467 15.7664 13.4282 15.3451 13.3488 14.9157C13.2777 14.5169 13.2357 14.1134 13.2232 13.7085ZM14.8319 15.2301C15.4685 14.4775 15.913 13.5816 16.1272 12.6195C15.7125 12.6371 15.3026 12.7143 14.9099 12.8486C14.8051 12.8828 14.7012 12.9195 14.5982 12.9586C14.5705 13.5312 14.6053 14.105 14.7018 14.67C14.7394 14.8781 14.7834 15.0624 14.8319 15.2301Z" fill="white"/>
</svg>
