<svg width="44" height="44" viewBox="0 0 44 44" fill="none" xmlns="http://www.w3.org/2000/svg">
<rect width="44" height="44" rx="22" fill="black"/>
<path d="M12 33.25C11.3125 33.25 10.724 33.0052 10.2344 32.5156C9.74479 32.026 9.5 31.4375 9.5 30.75V17C9.5 16.3125 9.74479 15.724 10.2344 15.2344C10.724 14.7448 11.3125 14.5 12 14.5H17V12C17 11.3125 17.2448 10.724 17.7344 10.2344C18.224 9.74479 18.8125 9.5 19.5 9.5H24.5C25.1875 9.5 25.776 9.74479 26.2656 10.2344C26.7552 10.724 27 11.3125 27 12V14.5H32C32.6875 14.5 33.276 14.7448 33.7656 15.2344C34.2552 15.724 34.5 16.3125 34.5 17V30.75C34.5 31.4375 34.2552 32.026 33.7656 32.5156C33.276 33.0052 32.6875 33.25 32 33.25H12ZM12 30.75H32V17H12V30.75ZM19.5 14.5H24.5V12H19.5V14.5Z" fill="white"/>
</svg>
