<svg width="44" height="44" viewBox="0 0 44 44" fill="none" xmlns="http://www.w3.org/2000/svg">
<rect width="44" height="44" rx="22" fill="black"/>
<path d="M22 22C20.625 22 19.4479 21.5104 18.4688 20.5312C17.4896 19.5521 17 18.375 17 17C17 15.625 17.4896 14.4479 18.4688 13.4688C19.4479 12.4896 20.625 12 22 12C23.375 12 24.5521 12.4896 25.5312 13.4688C26.5104 14.4479 27 15.625 27 17C27 18.375 26.5104 19.5521 25.5312 20.5312C24.5521 21.5104 23.375 22 22 22ZM12 32V28.5C12 27.7917 12.1823 27.1406 12.5469 26.5469C12.9115 25.9531 13.3958 25.5 14 25.1875C15.2917 24.5417 16.6042 24.0573 17.9375 23.7344C19.2708 23.4115 20.625 23.25 22 23.25C23.375 23.25 24.7292 23.4115 26.0625 23.7344C27.3958 24.0573 28.7083 24.5417 30 25.1875C30.6042 25.5 31.0885 25.9531 31.4531 26.5469C31.8177 27.1406 32 27.7917 32 28.5V32H12ZM14.5 29.5H29.5V28.5C29.5 28.2708 29.4427 28.0625 29.3281 27.875C29.2135 27.6875 29.0625 27.5417 28.875 27.4375C27.75 26.875 26.6146 26.4531 25.4688 26.1719C24.3229 25.8906 23.1667 25.75 22 25.75C20.8333 25.75 19.6771 25.8906 18.5312 26.1719C17.3854 26.4531 16.25 26.875 15.125 27.4375C14.9375 27.5417 14.7865 27.6875 14.6719 27.875C14.5573 28.0625 14.5 28.2708 14.5 28.5V29.5ZM22 19.5C22.6875 19.5 23.276 19.2552 23.7656 18.7656C24.2552 18.276 24.5 17.6875 24.5 17C24.5 16.3125 24.2552 15.724 23.7656 15.2344C23.276 14.7448 22.6875 14.5 22 14.5C21.3125 14.5 20.724 14.7448 20.2344 15.2344C19.7448 15.724 19.5 16.3125 19.5 17C19.5 17.6875 19.7448 18.276 20.2344 18.7656C20.724 19.2552 21.3125 19.5 22 19.5Z" fill="white"/>
</svg>
