<svg width="696" height="696" viewBox="0 0 696 696" fill="none" xmlns="http://www.w3.org/2000/svg">
<path d="M288.72 48H264V72.72H288.72V48Z" fill="#001023"/>
<path d="M360.72 48H336V72.72H360.72V48Z" fill="#001023"/>
<path d="M384.72 48H360V72.72H384.72V48Z" fill="#001023"/>
<path d="M312.72 72H288V96.72H312.72V72Z" fill="#001023"/>
<path d="M336.72 72H312V96.72H336.72V72Z" fill="#001023"/>
<path d="M384.72 72H360V96.72H384.72V72Z" fill="#001023"/>
<path d="M408.72 72H384V96.72H408.72V72Z" fill="#001023"/>
<path d="M432.72 72H408V96.72H432.72V72Z" fill="#001023"/>
<path d="M264.72 96H240V120.72H264.72V96Z" fill="#001023"/>
<path d="M288.72 96H264V120.72H288.72V96Z" fill="#001023"/>
<path d="M336.72 96H312V120.72H336.72V96Z" fill="#001023"/>
<path d="M408.72 96H384V120.72H408.72V96Z" fill="#001023"/>
<path d="M432.72 96H408V120.72H432.72V96Z" fill="#001023"/>
<path d="M264.72 120H240V144.72H264.72V120Z" fill="#001023"/>
<path d="M384.72 120H360V144.72H384.72V120Z" fill="#001023"/>
<path d="M408.72 120H384V144.72H408.72V120Z" fill="#001023"/>
<path d="M432.72 120H408V144.72H432.72V120Z" fill="#001023"/>
<path d="M456.72 120H432V144.72H456.72V120Z" fill="#001023"/>
<path d="M264.72 144H240V168.72H264.72V144Z" fill="#001023"/>
<path d="M456.72 144H432V168.72H456.72V144Z" fill="#001023"/>
<path d="M264.72 168H240V192.72H264.72V168Z" fill="#001023"/>
<path d="M288.72 168H264V192.72H288.72V168Z" fill="#001023"/>
<path d="M336.72 168H312V192.72H336.72V168Z" fill="#001023"/>
<path d="M360.72 168H336V192.72H360.72V168Z" fill="#001023"/>
<path d="M432.72 168H408V192.72H432.72V168Z" fill="#001023"/>
<path d="M264.72 192H240V216.72H264.72V192Z" fill="#001023"/>
<path d="M312.72 192H288V216.72H312.72V192Z" fill="#001023"/>
<path d="M360.72 192H336V216.72H360.72V192Z" fill="#001023"/>
<path d="M408.72 192H384V216.72H408.72V192Z" fill="#001023"/>
<path d="M456.72 192H432V216.72H456.72V192Z" fill="#001023"/>
<path d="M264.72 216H240V240.72H264.72V216Z" fill="#001023"/>
<path d="M312.72 216H288V240.72H312.72V216Z" fill="#001023"/>
<path d="M336.72 216H312V240.72H336.72V216Z" fill="#001023"/>
<path d="M360.72 216H336V240.72H360.72V216Z" fill="#001023"/>
<path d="M408.72 216H384V240.72H408.72V216Z" fill="#001023"/>
<path d="M432.72 216H408V240.72H432.72V216Z" fill="#001023"/>
<path d="M72.72 240H48V264.72H72.72V240Z" fill="#001023"/>
<path d="M120.72 240H96V264.72H120.72V240Z" fill="#001023"/>
<path d="M144.72 240H120V264.72H144.72V240Z" fill="#001023"/>
<path d="M168.72 240H144V264.72H168.72V240Z" fill="#001023"/>
<path d="M192.72 240H168V264.72H192.72V240Z" fill="#001023"/>
<path d="M216.72 240H192V264.72H216.72V240Z" fill="#001023"/>
<path d="M312.72 240H288V264.72H312.72V240Z" fill="#001023"/>
<path d="M336.72 240H312V264.72H336.72V240Z" fill="#001023"/>
<path d="M384.72 240H360V264.72H384.72V240Z" fill="#001023"/>
<path d="M408.72 240H384V264.72H408.72V240Z" fill="#001023"/>
<path d="M432.72 240H408V264.72H432.72V240Z" fill="#001023"/>
<path d="M456.72 240H432V264.72H456.72V240Z" fill="#001023"/>
<path d="M504.72 240H480V264.72H504.72V240Z" fill="#001023"/>
<path d="M528.72 240H504V264.72H528.72V240Z" fill="#001023"/>
<path d="M552.72 240H528V264.72H552.72V240Z" fill="#001023"/>
<path d="M576.72 240H552V264.72H576.72V240Z" fill="#001023"/>
<path d="M600.72 240H576V264.72H600.72V240Z" fill="#001023"/>
<path d="M120.72 264H96V288.72H120.72V264Z" fill="#001023"/>
<path d="M144.72 264H120V288.72H144.72V264Z" fill="#001023"/>
<path d="M168.72 264H144V288.72H168.72V264Z" fill="#001023"/>
<path d="M288.72 264H264V288.72H288.72V264Z" fill="#001023"/>
<path d="M312.72 264H288V288.72H312.72V264Z" fill="#001023"/>
<path d="M336.72 264H312V288.72H336.72V264Z" fill="#001023"/>
<path d="M408.72 264H384V288.72H408.72V264Z" fill="#001023"/>
<path d="M456.72 264H432V288.72H456.72V264Z" fill="#001023"/>
<path d="M528.72 264H504V288.72H528.72V264Z" fill="#001023"/>
<path d="M624.72 264H600V288.72H624.72V264Z" fill="#001023"/>
<path d="M120.72 288H96V312.72H120.72V288Z" fill="#001023"/>
<path d="M168.72 288H144V312.72H168.72V288Z" fill="#001023"/>
<path d="M192.72 288H168V312.72H192.72V288Z" fill="#001023"/>
<path d="M216.72 288H192V312.72H216.72V288Z" fill="#001023"/>
<path d="M240.72 288H216V312.72H240.72V288Z" fill="#001023"/>
<path d="M264.72 288H240V312.72H264.72V288Z" fill="#001023"/>
<path d="M312.72 288H288V312.72H312.72V288Z" fill="#001023"/>
<path d="M336.72 288H312V312.72H336.72V288Z" fill="#001023"/>
<path d="M360.72 288H336V312.72H360.72V288Z" fill="#001023"/>
<path d="M432.72 288H408V312.72H432.72V288Z" fill="#001023"/>
<path d="M456.72 288H432V312.72H456.72V288Z" fill="#001023"/>
<path d="M480.72 288H456V312.72H480.72V288Z" fill="#001023"/>
<path d="M528.72 288H504V312.72H528.72V288Z" fill="#001023"/>
<path d="M576.72 288H552V312.72H576.72V288Z" fill="#001023"/>
<path d="M624.72 288H600V312.72H624.72V288Z" fill="#001023"/>
<path d="M648.72 288H624V312.72H648.72V288Z" fill="#001023"/>
<path d="M72.72 312H48V336.72H72.72V312Z" fill="#001023"/>
<path d="M240.72 312H216V336.72H240.72V312Z" fill="#001023"/>
<path d="M264.72 312H240V336.72H264.72V312Z" fill="#001023"/>
<path d="M288.72 312H264V336.72H288.72V312Z" fill="#001023"/>
<path d="M336.72 312H312V336.72H336.72V312Z" fill="#001023"/>
<path d="M432.72 312H408V336.72H432.72V312Z" fill="#001023"/>
<path d="M480.72 312H456V336.72H480.72V312Z" fill="#001023"/>
<path d="M552.72 312H528V336.72H552.72V312Z" fill="#001023"/>
<path d="M648.72 312H624V336.72H648.72V312Z" fill="#001023"/>
<path d="M96.72 336H72V360.72H96.72V336Z" fill="#001023"/>
<path d="M120.72 336H96V360.72H120.72V336Z" fill="#001023"/>
<path d="M168.72 336H144V360.72H168.72V336Z" fill="#001023"/>
<path d="M216.72 336H192V360.72H216.72V336Z" fill="#001023"/>
<path d="M288.72 336H264V360.72H288.72V336Z" fill="#001023"/>
<path d="M336.72 336H312V360.72H336.72V336Z" fill="#001023"/>
<path d="M360.72 336H336V360.72H360.72V336Z" fill="#001023"/>
<path d="M384.72 336H360V360.72H384.72V336Z" fill="#001023"/>
<path d="M408.72 336H384V360.72H408.72V336Z" fill="#001023"/>
<path d="M432.72 336H408V360.72H432.72V336Z" fill="#001023"/>
<path d="M480.72 336H456V360.72H480.72V336Z" fill="#001023"/>
<path d="M504.72 336H480V360.72H504.72V336Z" fill="#001023"/>
<path d="M528.72 336H504V360.72H528.72V336Z" fill="#001023"/>
<path d="M552.72 336H528V360.72H552.72V336Z" fill="#001023"/>
<path d="M600.72 336H576V360.72H600.72V336Z" fill="#001023"/>
<path d="M624.72 336H600V360.72H624.72V336Z" fill="#001023"/>
<path d="M648.72 336H624V360.72H648.72V336Z" fill="#001023"/>
<path d="M72.72 360H48V384.72H72.72V360Z" fill="#001023"/>
<path d="M96.72 360H72V384.72H96.72V360Z" fill="#001023"/>
<path d="M120.72 360H96V384.72H120.72V360Z" fill="#001023"/>
<path d="M168.72 360H144V384.72H168.72V360Z" fill="#001023"/>
<path d="M240.72 360H216V384.72H240.72V360Z" fill="#001023"/>
<path d="M264.72 360H240V384.72H264.72V360Z" fill="#001023"/>
<path d="M312.72 360H288V384.72H312.72V360Z" fill="#001023"/>
<path d="M408.72 360H384V384.72H408.72V360Z" fill="#001023"/>
<path d="M456.72 360H432V384.72H456.72V360Z" fill="#001023"/>
<path d="M528.72 360H504V384.72H528.72V360Z" fill="#001023"/>
<path d="M576.72 360H552V384.72H576.72V360Z" fill="#001023"/>
<path d="M624.72 360H600V384.72H624.72V360Z" fill="#001023"/>
<path d="M72.72 384H48V408.72H72.72V384Z" fill="#001023"/>
<path d="M144.72 384H120V408.72H144.72V384Z" fill="#001023"/>
<path d="M168.72 384H144V408.72H168.72V384Z" fill="#001023"/>
<path d="M192.72 384H168V408.72H192.72V384Z" fill="#001023"/>
<path d="M216.72 384H192V408.72H216.72V384Z" fill="#001023"/>
<path d="M264.72 384H240V408.72H264.72V384Z" fill="#001023"/>
<path d="M312.72 384H288V408.72H312.72V384Z" fill="#001023"/>
<path d="M336.72 384H312V408.72H336.72V384Z" fill="#001023"/>
<path d="M360.72 384H336V408.72H360.72V384Z" fill="#001023"/>
<path d="M432.72 384H408V408.72H432.72V384Z" fill="#001023"/>
<path d="M480.72 384H456V408.72H480.72V384Z" fill="#001023"/>
<path d="M528.72 384H504V408.72H528.72V384Z" fill="#001023"/>
<path d="M552.72 384H528V408.72H552.72V384Z" fill="#001023"/>
<path d="M576.72 384H552V408.72H576.72V384Z" fill="#001023"/>
<path d="M624.72 384H600V408.72H624.72V384Z" fill="#001023"/>
<path d="M648.72 384H624V408.72H648.72V384Z" fill="#001023"/>
<path d="M72.72 408H48V432.72H72.72V408Z" fill="#001023"/>
<path d="M120.72 408H96V432.72H120.72V408Z" fill="#001023"/>
<path d="M168.72 408H144V432.72H168.72V408Z" fill="#001023"/>
<path d="M192.72 408H168V432.72H192.72V408Z" fill="#001023"/>
<path d="M240.72 408H216V432.72H240.72V408Z" fill="#001023"/>
<path d="M264.72 408H240V432.72H264.72V408Z" fill="#001023"/>
<path d="M312.72 408H288V432.72H312.72V408Z" fill="#001023"/>
<path d="M336.72 408H312V432.72H336.72V408Z" fill="#001023"/>
<path d="M456.72 408H432V432.72H456.72V408Z" fill="#001023"/>
<path d="M480.72 408H456V432.72H480.72V408Z" fill="#001023"/>
<path d="M528.72 408H504V432.72H528.72V408Z" fill="#001023"/>
<path d="M552.72 408H528V432.72H552.72V408Z" fill="#001023"/>
<path d="M648.72 408H624V432.72H648.72V408Z" fill="#001023"/>
<path d="M72.72 432H48V456.72H72.72V432Z" fill="#001023"/>
<path d="M120.72 432H96V456.72H120.72V432Z" fill="#001023"/>
<path d="M144.72 432H120V456.72H144.72V432Z" fill="#001023"/>
<path d="M168.72 432H144V456.72H168.72V432Z" fill="#001023"/>
<path d="M216.72 432H192V456.72H216.72V432Z" fill="#001023"/>
<path d="M240.72 432H216V456.72H240.72V432Z" fill="#001023"/>
<path d="M264.72 432H240V456.72H264.72V432Z" fill="#001023"/>
<path d="M312.72 432H288V456.72H312.72V432Z" fill="#001023"/>
<path d="M336.72 432H312V456.72H336.72V432Z" fill="#001023"/>
<path d="M456.72 432H432V456.72H456.72V432Z" fill="#001023"/>
<path d="M480.72 432H456V456.72H480.72V432Z" fill="#001023"/>
<path d="M504.72 432H480V456.72H504.72V432Z" fill="#001023"/>
<path d="M528.72 432H504V456.72H528.72V432Z" fill="#001023"/>
<path d="M552.72 432H528V456.72H552.72V432Z" fill="#001023"/>
<path d="M600.72 432H576V456.72H600.72V432Z" fill="#001023"/>
<path d="M264.72 456H240V480.72H264.72V456Z" fill="#001023"/>
<path d="M360.72 456H336V480.72H360.72V456Z" fill="#001023"/>
<path d="M384.72 456H360V480.72H384.72V456Z" fill="#001023"/>
<path d="M432.72 456H408V480.72H432.72V456Z" fill="#001023"/>
<path d="M456.72 456H432V480.72H456.72V456Z" fill="#001023"/>
<path d="M552.72 456H528V480.72H552.72V456Z" fill="#001023"/>
<path d="M576.72 456H552V480.72H576.72V456Z" fill="#001023"/>
<path d="M312.72 480H288V504.72H312.72V480Z" fill="#001023"/>
<path d="M384.72 480H360V504.72H384.72V480Z" fill="#001023"/>
<path d="M408.72 480H384V504.72H408.72V480Z" fill="#001023"/>
<path d="M456.72 480H432V504.72H456.72V480Z" fill="#001023"/>
<path d="M504.72 480H480V504.72H504.72V480Z" fill="#001023"/>
<path d="M552.72 480H528V504.72H552.72V480Z" fill="#001023"/>
<path d="M600.72 480H576V504.72H600.72V480Z" fill="#001023"/>
<path d="M624.72 480H600V504.72H624.72V480Z" fill="#001023"/>
<path d="M648.72 480H624V504.72H648.72V480Z" fill="#001023"/>
<path d="M264.72 504H240V528.72H264.72V504Z" fill="#001023"/>
<path d="M312.72 504H288V528.72H312.72V504Z" fill="#001023"/>
<path d="M360.72 504H336V528.72H360.72V504Z" fill="#001023"/>
<path d="M384.72 504H360V528.72H384.72V504Z" fill="#001023"/>
<path d="M432.72 504H408V528.72H432.72V504Z" fill="#001023"/>
<path d="M456.72 504H432V528.72H456.72V504Z" fill="#001023"/>
<path d="M552.72 504H528V528.72H552.72V504Z" fill="#001023"/>
<path d="M576.72 504H552V528.72H576.72V504Z" fill="#001023"/>
<path d="M624.72 504H600V528.72H624.72V504Z" fill="#001023"/>
<path d="M648.72 504H624V528.72H648.72V504Z" fill="#001023"/>
<path d="M264.72 528H240V552.72H264.72V528Z" fill="#001023"/>
<path d="M288.72 528H264V552.72H288.72V528Z" fill="#001023"/>
<path d="M360.72 528H336V552.72H360.72V528Z" fill="#001023"/>
<path d="M408.72 528H384V552.72H408.72V528Z" fill="#001023"/>
<path d="M432.72 528H408V552.72H432.72V528Z" fill="#001023"/>
<path d="M456.72 528H432V552.72H456.72V528Z" fill="#001023"/>
<path d="M480.72 528H456V552.72H480.72V528Z" fill="#001023"/>
<path d="M504.72 528H480V552.72H504.72V528Z" fill="#001023"/>
<path d="M528.72 528H504V552.72H528.72V528Z" fill="#001023"/>
<path d="M552.72 528H528V552.72H552.72V528Z" fill="#001023"/>
<path d="M600.72 528H576V552.72H600.72V528Z" fill="#001023"/>
<path d="M624.72 528H600V552.72H624.72V528Z" fill="#001023"/>
<path d="M648.72 528H624V552.72H648.72V528Z" fill="#001023"/>
<path d="M264.72 552H240V576.72H264.72V552Z" fill="#001023"/>
<path d="M288.72 552H264V576.72H288.72V552Z" fill="#001023"/>
<path d="M480.72 552H456V576.72H480.72V552Z" fill="#001023"/>
<path d="M504.72 552H480V576.72H504.72V552Z" fill="#001023"/>
<path d="M552.72 552H528V576.72H552.72V552Z" fill="#001023"/>
<path d="M576.72 552H552V576.72H576.72V552Z" fill="#001023"/>
<path d="M600.72 552H576V576.72H600.72V552Z" fill="#001023"/>
<path d="M624.72 552H600V576.72H624.72V552Z" fill="#001023"/>
<path d="M648.72 552H624V576.72H648.72V552Z" fill="#001023"/>
<path d="M264.72 576H240V600.72H264.72V576Z" fill="#001023"/>
<path d="M336.72 576H312V600.72H336.72V576Z" fill="#001023"/>
<path d="M360.72 576H336V600.72H360.72V576Z" fill="#001023"/>
<path d="M576.72 576H552V600.72H576.72V576Z" fill="#001023"/>
<path d="M600.72 576H576V600.72H600.72V576Z" fill="#001023"/>
<path d="M648.72 576H624V600.72H648.72V576Z" fill="#001023"/>
<path d="M288.72 600H264V624.72H288.72V600Z" fill="#001023"/>
<path d="M336.72 600H312V624.72H336.72V600Z" fill="#001023"/>
<path d="M408.72 600H384V624.72H408.72V600Z" fill="#001023"/>
<path d="M432.72 600H408V624.72H432.72V600Z" fill="#001023"/>
<path d="M456.72 600H432V624.72H456.72V600Z" fill="#001023"/>
<path d="M528.72 600H504V624.72H528.72V600Z" fill="#001023"/>
<path d="M552.72 600H528V624.72H552.72V600Z" fill="#001023"/>
<path d="M576.72 600H552V624.72H576.72V600Z" fill="#001023"/>
<path d="M648.72 600H624V624.72H648.72V600Z" fill="#001023"/>
<path d="M264.72 624H240V648.72H264.72V624Z" fill="#001023"/>
<path d="M336.72 624H312V648.72H336.72V624Z" fill="#001023"/>
<path d="M480.72 624H456V648.72H480.72V624Z" fill="#001023"/>
<path d="M528.72 624H504V648.72H528.72V624Z" fill="#001023"/>
<path d="M552.72 624H528V648.72H552.72V624Z" fill="#001023"/>
<path d="M576.72 624H552V648.72H576.72V624Z" fill="#001023"/>
<path d="M600.72 624H576V648.72H600.72V624Z" fill="#001023"/>
<path d="M624.72 624H600V648.72H624.72V624Z" fill="#001023"/>
<path d="M648.72 624H624V648.72H648.72V624Z" fill="#001023"/>
<path d="M48 48V216H216V48H48ZM192 192H72V72H192V192Z" fill="#001023"/>
<path d="M480 48V216H648V48H480ZM624 192H504V72H624V192Z" fill="#001023"/>
<path d="M48 480V648H216V480H48ZM192 624H72V504H192V624Z" fill="#001023"/>
<path d="M168 96H96V168H168V96Z" fill="#001023"/>
<path d="M600 96H528V168H600V96Z" fill="#001023"/>
<path d="M168 528H96V600H168V528Z" fill="#001023"/>
</svg>
