<?xml version="1.0" standalone="no"?>
<!DOCTYPE svg PUBLIC "-//W3C//DTD SVG 20010904//EN"
 "http://www.w3.org/TR/2001/REC-SVG-20010904/DTD/svg10.dtd">
<svg version="1.0" xmlns="http://www.w3.org/2000/svg"
 width="457.000000pt" height="79.000000pt" viewBox="0 0 457.000000 79.000000"
 preserveAspectRatio="xMidYMid meet">

<g transform="translate(0.000000,79.000000) scale(0.100000,-0.100000)"
fill="#000000" stroke="none">
<path d="M2225 731 c-34 -15 -66 -57 -255 -331 -101 -146 -189 -272 -196 -281
-8 -8 -14 -19 -14 -23 0 -4 39 -5 87 -4 l88 3 160 232 c88 128 163 232 168
230 4 -1 57 -76 117 -167 l110 -165 -174 -3 -174 -2 -47 -63 -46 -62 181 -3
c100 -1 260 -1 356 0 l175 3 -201 295 c-110 162 -211 305 -223 318 -25 25 -81
36 -112 23z"/>
<path d="M190 710 c-91 -31 -129 -94 -117 -197 6 -59 31 -92 93 -123 47 -24
58 -25 292 -30 226 -5 245 -6 258 -24 15 -21 18 -64 6 -82 -20 -30 -55 -34
-317 -34 l-267 0 -22 -27 c-11 -15 -34 -44 -50 -66 l-29 -38 339 3 339 3 56
26 c63 30 93 69 104 135 12 79 -22 145 -95 185 -18 10 -90 15 -270 19 -166 4
-252 10 -267 18 -25 14 -38 50 -29 79 14 44 38 48 303 51 l253 4 46 59 45 59
-308 0 c-276 -1 -314 -3 -363 -20z"/>
<path d="M960 410 l0 -320 75 0 75 0 0 135 0 135 215 0 214 0 3 -132 3 -133
73 -3 72 -3 0 321 0 320 -75 0 -75 0 0 -120 0 -120 -215 0 -215 0 0 120 0 120
-75 0 -75 0 0 -320z"/>
<path d="M2882 676 c-23 -30 -42 -57 -42 -60 0 -2 125 -6 278 -8 233 -3 283
-7 316 -21 65 -29 84 -77 50 -126 -33 -47 -63 -51 -369 -51 l-285 0 0 -160 0
-160 75 0 75 0 0 100 0 100 163 0 164 0 97 -100 97 -100 95 0 c53 0 94 3 92 8
-1 4 -50 52 -108 107 -58 55 -106 103 -108 106 -1 4 12 9 30 13 85 17 148 98
148 189 0 88 -41 146 -135 189 -48 22 -63 23 -321 26 l-270 4 -42 -56z"/>
<path d="M3706 655 c38 -41 126 -135 197 -208 l127 -134 0 -112 0 -112 73 3
72 3 5 116 5 117 188 201 188 201 -94 0 -94 0 -113 -127 c-63 -71 -124 -139
-136 -152 l-22 -24 -34 39 c-18 21 -80 89 -137 151 l-104 113 -95 0 -94 0 68
-75z"/>
</g>
</svg>
