<svg width="44" height="44" viewBox="0 0 44 44" fill="none" xmlns="http://www.w3.org/2000/svg">
<rect width="44" height="44" rx="22" fill="black"/>
<path d="M14.5 30.75V32C14.5 32.3542 14.3802 32.651 14.1406 32.8906C13.901 33.1302 13.6042 33.25 13.25 33.25H12C11.6458 33.25 11.349 33.1302 11.1094 32.8906C10.8698 32.651 10.75 32.3542 10.75 32V22L13.375 14.5C13.5 14.125 13.724 13.8229 14.0469 13.5938C14.3698 13.3646 14.7292 13.25 15.125 13.25H28.875C29.2708 13.25 29.6302 13.3646 29.9531 13.5938C30.276 13.8229 30.5 14.125 30.625 14.5L33.25 22V32C33.25 32.3542 33.1302 32.651 32.8906 32.8906C32.651 33.1302 32.3542 33.25 32 33.25H30.75C30.3958 33.25 30.099 33.1302 29.8594 32.8906C29.6198 32.651 29.5 32.3542 29.5 32V30.75H14.5ZM14.25 19.5H29.75L28.4375 15.75H15.5625L14.25 19.5ZM16.375 27C16.8958 27 17.3385 26.8177 17.7031 26.4531C18.0677 26.0885 18.25 25.6458 18.25 25.125C18.25 24.6042 18.0677 24.1615 17.7031 23.7969C17.3385 23.4323 16.8958 23.25 16.375 23.25C15.8542 23.25 15.4115 23.4323 15.0469 23.7969C14.6823 24.1615 14.5 24.6042 14.5 25.125C14.5 25.6458 14.6823 26.0885 15.0469 26.4531C15.4115 26.8177 15.8542 27 16.375 27ZM27.625 27C28.1458 27 28.5885 26.8177 28.9531 26.4531C29.3177 26.0885 29.5 25.6458 29.5 25.125C29.5 24.6042 29.3177 24.1615 28.9531 23.7969C28.5885 23.4323 28.1458 23.25 27.625 23.25C27.1042 23.25 26.6615 23.4323 26.2969 23.7969C25.9323 24.1615 25.75 24.6042 25.75 25.125C25.75 25.6458 25.9323 26.0885 26.2969 26.4531C26.6615 26.8177 27.1042 27 27.625 27ZM13.25 28.25H30.75V22H13.25V28.25Z" fill="white"/>
</svg>
