<svg width="175" height="160" viewBox="0 0 175 160" fill="none" xmlns="http://www.w3.org/2000/svg">
<path d="M113.203 51.0061V13H172.789V51.0061H113.203Z" fill="#FF9201"/>
<path d="M172.789 51.0063L147.902 31.7324C144.861 29.6414 140.835 29.6304 137.781 31.7026C129.23 37.5079 113.203 51.0063 113.203 51.0063H172.789Z" fill="#BCDCFF"/>
<path d="M138.758 31.1436H138.583L113.203 13.0059L113.204 51.0057C113.204 51.0057 129.231 37.5072 137.781 31.702C138.096 31.489 138.426 31.3125 138.758 31.1436Z" fill="#A7D0FE"/>
<path d="M147.413 31.1437H146.891C147.236 31.3202 147.578 31.5078 147.904 31.7318L172.792 51.0057V13.0059L147.413 31.1437Z" fill="#A7D0FE"/>
<path d="M172.789 13.0063L147.902 32.2803C144.861 34.3713 140.835 34.3823 137.781 32.3101C129.23 26.5048 113.203 13.0063 113.203 13.0063H172.789Z" fill="white"/>
<g clip-path="url(#clip0_1412_1993)">
<path d="M148.861 62.7387L103.273 18.1732C97.5816 12.6076 88.416 12.6076 82.7243 18.1732L37.1367 62.7387V134H148.861V62.7387Z" fill="#FF9201"/>
<rect x="53" y="30" width="80" height="104" rx="4" fill="white"/>
<g clip-path="url(#clip1_1412_1993)">
<path fill-rule="evenodd" clip-rule="evenodd" d="M73 65.5C77.1421 65.5 80.5 62.1421 80.5 58C80.5 53.8579 77.1421 50.5 73 50.5C68.8579 50.5 65.5 53.8579 65.5 58C65.5 62.1421 68.8579 65.5 73 65.5ZM73 70C79.6274 70 85 64.6274 85 58C85 51.3726 79.6274 46 73 46C66.3726 46 61 51.3726 61 58C61 64.6274 66.3726 70 73 70Z" fill="#2EC5CE"/>
<rect x="89" y="51" width="36" height="6" rx="0.5" fill="#2EC5CE"/>
<rect opacity="0.4" x="89" y="60" width="16" height="5" rx="0.5" fill="#2EC5CE"/>
</g>
<path d="M148.861 134L102.197 97.8616C96.4953 93.9409 88.9457 93.9202 83.2209 97.8057C67.1864 108.691 37.1367 134 37.1367 134H148.861Z" fill="#FFDC81"/>
<path d="M85.0498 96.7587H84.7229L37.1367 63.6553V134C37.1367 134 67.1864 108.69 83.2188 97.8056C83.8084 97.4063 84.4271 97.0753 85.0498 96.7587Z" fill="#FFCA00"/>
<path d="M101.275 96.7587H100.297C100.944 97.0898 101.586 97.4415 102.196 97.8615L148.862 134V63.6553L101.275 96.7587Z" fill="#FFB800"/>
</g>
<path d="M2.20703 147.006V109H61.7932V147.006H2.20703Z" fill="#FF9201"/>
<path d="M61.7932 147.006L36.9061 127.732C33.865 125.641 29.8385 125.63 26.7852 127.703C18.2335 133.508 2.20703 147.006 2.20703 147.006H61.7932Z" fill="#BCDCFF"/>
<path d="M27.7617 127.144H27.5873L2.20703 109.006L2.20801 147.006C2.20801 147.006 18.2345 133.507 26.7851 127.702C27.0996 127.489 27.4295 127.312 27.7617 127.144Z" fill="#A7D0FE"/>
<path d="M36.4165 127.144H35.8945C36.2399 127.32 36.582 127.508 36.9075 127.732L61.7958 147.006V109.006L36.4165 127.144Z" fill="#A7D0FE"/>
<path d="M61.7932 109.006L36.9061 128.28C33.865 130.371 29.8385 130.382 26.7852 128.31C18.2335 122.505 2.20703 109.006 2.20703 109.006H61.7932Z" fill="white"/>
<circle cx="145" cy="122" r="24" fill="white"/>
<g opacity="0.4">
<path d="M151 114.706C151 118.252 148.122 121.127 144.571 121.127C141.021 121.127 138.143 118.252 138.143 114.706C138.143 111.161 141.021 108.286 144.571 108.286C148.122 108.286 151 111.161 151 114.706Z" fill="#2EC5CE"/>
<path d="M157 135.679C157 135.679 148.913 135.759 143.714 135.679C139.517 135.615 133 135.679 133 135.679C133 135.679 134.714 122.839 145 122.839C155.286 122.839 157 135.679 157 135.679Z" fill="#2EC5CE"/>
</g>
<circle cx="163" cy="104" r="10" fill="#2EC5CE"/>
<path fill-rule="evenodd" clip-rule="evenodd" d="M163.003 99.333C163.325 99.333 163.586 99.5942 163.586 99.9163V103.416H167.086C167.408 103.416 167.669 103.678 167.669 104C167.669 104.322 167.408 104.583 167.086 104.583H163.586V108.083C163.586 108.405 163.325 108.666 163.003 108.666C162.68 108.666 162.419 108.405 162.419 108.083V104.583H158.919C158.597 104.583 158.336 104.322 158.336 104C158.336 103.678 158.597 103.416 158.919 103.416H162.419V99.9163C162.419 99.5942 162.68 99.333 163.003 99.333Z" fill="white"/>
<defs>
<clipPath id="clip0_1412_1993">
<rect width="120" height="120" fill="white" transform="translate(33 14)"/>
</clipPath>
<clipPath id="clip1_1412_1993">
<rect width="64" height="24" fill="white" transform="translate(61 46)"/>
</clipPath>
</defs>
</svg>
