<?xml version="1.0" standalone="no"?>
<!DOCTYPE svg PUBLIC "-//W3C//DTD SVG 20010904//EN"
 "http://www.w3.org/TR/2001/REC-SVG-20010904/DTD/svg10.dtd">
<svg version="1.0" xmlns="http://www.w3.org/2000/svg"
 width="200.000000pt" height="200.000000pt" viewBox="0 0 200.000000 200.000000"
 preserveAspectRatio="xMidYMid meet">
<metadata>
Created by potrace 1.14, written by Peter Selinger 2001-2017
</metadata>
<g transform="translate(0.000000,200.000000) scale(0.100000,-0.100000)"
fill="#000000" stroke="none">
<path d="M650 1601 c-70 -36 -99 -116 -66 -179 8 -15 76 -88 150 -162 133
-132 136 -134 179 -134 23 1 55 7 69 15 15 8 86 71 158 142 136 132 160 146
193 109 39 -43 26 -62 -163 -251 l-180 -180 0 -48 0 -47 183 179 c221 219 257
263 257 317 0 67 -70 138 -136 138 -44 0 -77 -26 -216 -165 -100 -100 -134
-127 -154 -127 -21 0 -53 26 -146 119 -122 124 -133 143 -100 182 39 48 57 40
191 -93 l126 -123 27 25 27 25 -117 117 c-65 65 -133 127 -152 139 -43 26 -85
27 -130 2z"/>
<path d="M1231 781 c-8 -5 -11 -54 -9 -167 l3 -159 30 0 c30 0 30 1 29 53 0
28 2 52 5 52 3 0 34 -25 68 -55 54 -49 66 -55 105 -55 l43 1 -73 67 c-40 37
-72 70 -72 73 0 4 32 31 71 60 l71 54 -43 3 c-31 2 -49 -2 -68 -17 -14 -12
-44 -34 -67 -50 l-41 -30 1 85 c1 46 -1 84 -4 85 -3 0 -12 2 -21 4 -9 1 -22 0
-28 -4z"/>
<path d="M200 764 c0 -8 123 -158 132 -162 5 -2 8 -37 8 -78 l0 -75 35 3 c38
2 38 2 35 80 -1 46 2 52 74 140 l76 93 -37 3 c-35 3 -42 -1 -93 -59 l-56 -62
-49 62 c-45 55 -54 61 -87 61 -21 0 -38 -3 -38 -6z"/>
<path d="M592 696 c-76 -42 -82 -157 -12 -221 27 -24 152 -28 194 -5 75 39 83
157 15 215 -27 22 -40 25 -102 25 -40 -1 -82 -6 -95 -14z m145 -50 c46 -15 48
-100 3 -123 -39 -20 -103 -16 -128 7 -35 33 -25 102 18 118 24 9 78 8 107 -2z"/>
<path d="M932 696 c-85 -47 -81 -185 7 -231 35 -17 147 -14 179 6 78 48 73
184 -9 226 -31 16 -148 16 -177 -1z m145 -50 c42 -14 49 -93 12 -122 -34 -26
-129 -13 -151 20 -13 18 -9 60 7 83 19 27 81 36 132 19z"/>
<path d="M1559 695 c-30 -16 -59 -70 -59 -109 0 -40 25 -92 53 -111 29 -19 99
-29 144 -20 69 13 127 95 68 95 -14 0 -35 -9 -47 -20 -30 -27 -97 -27 -132 1
-14 11 -26 25 -26 30 0 5 53 9 121 9 l121 0 -5 33 c-10 75 -55 107 -149 107
-35 -1 -75 -7 -89 -15z m158 -58 c16 -16 12 -17 -65 -17 -83 0 -101 8 -59 27
33 16 105 10 124 -10z"/>
</g>
</svg>
